<svg width="12" height="12" viewBox="0 0 12 12" fill="none" xmlns="http://www.w3.org/2000/svg">
<g id="Bold / Video, Audio, Sound / Soundwave">
<path id="Vector" fill-rule="evenodd" clip-rule="evenodd" d="M6 1.625C6.20711 1.625 6.375 1.79289 6.375 2L6.375 10C6.375 10.2071 6.20711 10.375 6 10.375C5.79289 10.375 5.625 10.2071 5.625 10L5.625 2C5.625 1.79289 5.79289 1.625 6 1.625ZM4 3.125C4.20711 3.125 4.375 3.29289 4.375 3.5V8.5C4.375 8.70711 4.20711 8.875 4 8.875C3.79289 8.875 3.625 8.70711 3.625 8.5V3.5C3.625 3.29289 3.79289 3.125 4 3.125ZM8 3.125C8.20711 3.125 8.375 3.29289 8.375 3.5V8.5C8.375 8.70711 8.20711 8.875 8 8.875C7.79289 8.875 7.625 8.70711 7.625 8.5V3.5C7.625 3.29289 7.79289 3.125 8 3.125ZM2 5.125C2.20711 5.125 2.375 5.29289 2.375 5.5L2.375 6.5C2.375 6.70711 2.20711 6.875 2 6.875C1.79289 6.875 1.625 6.70711 1.625 6.5L1.625 5.5C1.625 5.29289 1.79289 5.125 2 5.125ZM10 5.125C10.2071 5.125 10.375 5.29289 10.375 5.5V6.5C10.375 6.70711 10.2071 6.875 10 6.875C9.79289 6.875 9.625 6.70711 9.625 6.5V5.5C9.625 5.29289 9.79289 5.125 10 5.125Z" fill="black" style="fill:black;fill-opacity:1;"/>
</g>
</svg>
